<?xml version="1.0" encoding="iso-8859-1"?>
<!-- Generator: Adobe Illustrator 18.1.1, SVG Export Plug-In . SVG Version: 6.00 Build 0)  -->
<svg version="1.1" id="Capa_1" xmlns="http://www.w3.org/2000/svg" xmlns:xlink="http://www.w3.org/1999/xlink" x="0px" y="0px"
	 viewBox="0 0 284.118 284.118" style="enable-background:new 0 0 284.118 284.118;" xml:space="preserve">
<g>
	<g>
		<path style="fill:#53A9CE;" d="M218.525,211.639c-31.529,0-39.859,17.805-41.864,30.288c-0.125,0-0.221-0.018-0.346-0.018
			c0,0-0.143,1.146-0.215,2.948c-17.769-6.856-33.772-15.359-45.969-31.004c-7.196-9.231-11.349-18.67-13.61-28.402
			c11.85-0.459,26.26-7.351,31.207-18.766c-0.985,2.273-15.484,3.127-17.954,3.043c-6.015-0.215-11.999-2.542-15.615-7.441
			c0.012-8.455,0.722-17.167,1.522-26.183c2.172-24.416-9.971-42.782-33.778-49.615c-30.64-8.789-57.485,24.906-48.875,53.899
			c2.649,8.926,5.382,17.853,8.706,26.547c1.611,4.207-5.704,13.974-8.372,16.63c-6.295,6.283-13.276,6.737-21.576,6.916
			c-1.533-0.101-2.405-0.155-2.405-0.155s0.71,0.489,1.945,1.354c1.295,0.746,3.043,2.423,5.585,3.401
			c12.447,4.815,26.147,4.953,37.681-2.452c3.109,4.797,6.504,9.41,10.024,13.67c24.351,29.452,64.943,48.696,103.525,44.113
			c2.619-0.31,5.281-1.098,7.942-1.742c-0.03,3.103,0.233,5.179,0.233,5.179c0.125,0,0.227-0.018,0.346-0.018
			c2.005,12.483,10.329,30.288,41.864,30.288c0,0,3.013-24.619-16.761-36.237C221.538,236.264,218.525,211.639,218.525,211.639z
			 M57.992,107.738c-2.041,3.258-5.322,4.881-7.327,3.622c-2.005-1.259-1.975-4.917,0.066-8.175s5.322-4.881,7.327-3.622
			S60.039,104.48,57.992,107.738z M88.763,99.563c2.005-1.259,5.287,0.364,7.327,3.622c2.041,3.258,2.071,6.916,0.066,8.175
			c-2.005,1.259-5.287-0.364-7.327-3.622C86.788,104.48,86.758,100.822,88.763,99.563z M176.918,248.085
			c-1.187,0.012-2.506,0.024-3.938,0.036c-1.426-0.125-2.972-0.263-4.612-0.412c-3.306-0.269-7.077-0.531-11.039-1.587
			c-2.005-0.442-4.099-0.895-6.259-1.372c-2.112-0.674-4.29-1.378-6.528-2.112c-4.583-1.247-9.004-3.604-13.736-5.68
			c-4.404-2.673-9.261-5.024-13.485-8.467c-4.511-3.055-8.479-6.916-12.608-10.591c-3.67-4.129-7.536-8.085-10.585-12.602
			c-3.437-4.23-5.788-9.082-8.461-13.491c-2.088-4.732-4.427-9.159-5.68-13.73c-0.728-2.238-1.432-4.427-2.112-6.534
			c-0.477-2.16-0.931-4.248-1.372-6.259c-1.05-3.956-1.319-7.757-1.587-11.063c-0.149-1.653-0.286-3.192-0.412-4.624
			c0.012-1.42,0.03-2.727,0.042-3.902c0.131-4.72,0.203-7.417,0.203-7.417s0.346,2.673,0.949,7.357
			c0.131,1.164,0.28,2.47,0.442,3.878c0.298,1.372,0.627,2.858,0.973,4.451c0.68,3.174,1.39,6.725,2.643,10.514
			c0.567,1.897,1.164,3.878,1.778,5.931c0.811,1.969,1.653,4.022,2.512,6.116c1.504,4.29,4.165,8.324,6.235,12.775
			c2.697,4.117,5.191,8.562,8.473,12.554c2.942,4.248,6.677,7.948,10.185,11.826c3.878,3.52,7.572,7.25,11.826,10.197
			c3.998,3.276,8.431,5.776,12.554,8.473c4.451,2.071,8.491,4.72,12.775,6.223c2.1,0.871,4.141,1.701,6.116,2.518
			c2.053,0.615,4.034,1.199,5.925,1.778c3.789,1.253,7.357,1.963,10.543,2.637c1.599,0.352,3.091,0.668,4.463,0.979
			c1.402,0.155,2.685,0.304,3.855,0.436c4.678,0.615,7.345,0.955,7.345,0.955S181.643,247.953,176.918,248.085z"/>
		<path style="fill:#53A9CE;" d="M272.358,93.626c1.504,0.107,2.381,0.167,2.381,0.167s-0.71-0.495-1.945-1.354
			c-1.295-0.746-3.043-2.423-5.591-3.401c-12.447-4.815-26.141-4.952-37.675,2.452c-3.109-4.797-6.504-9.41-10.024-13.67
			c-24.351-29.452-64.949-48.702-103.525-44.113c-2.619,0.31-5.275,1.098-7.942,1.742c0.03-3.103-0.233-5.179-0.233-5.179
			c-0.125,0-0.227,0.018-0.346,0.018C105.458,17.805,97.129,0,65.6,0c0,0-3.013,24.619,16.755,36.237
			C62.587,47.854,65.6,72.474,65.6,72.474c31.529,0,39.859-17.805,41.858-30.288c0.125,0,0.227,0.018,0.346,0.018
			c0,0,0.143-1.146,0.215-2.948c17.769,6.862,33.772,15.359,45.969,31.004c7.196,9.231,11.349,18.67,13.61,28.402
			c-11.85,0.459-26.26,7.351-31.207,18.766c0.985-2.273,15.484-3.133,17.954-3.043c6.015,0.215,11.999,2.536,15.615,7.441
			c-0.012,8.455-0.722,17.167-1.528,26.183c-2.154,24.404,9.989,42.782,33.796,49.609c30.64,8.789,57.491-24.906,48.875-53.899
			c-2.643-8.926-5.382-17.847-8.706-26.541c-1.611-4.213,5.704-13.974,8.366-16.63C257.071,94.265,264.052,93.805,272.358,93.626z
			 M195.367,184.555c-2.005,1.259-5.293-0.37-7.333-3.622c-2.041-3.264-2.071-6.916-0.066-8.175c2.005-1.259,5.287,0.37,7.327,3.616
			C197.336,179.633,197.372,183.296,195.367,184.555z M209.58,138.419c-0.131,4.72-0.203,7.417-0.203,7.417
			s-0.352-2.673-0.949-7.357c-0.131-1.169-0.28-2.47-0.448-3.878c-0.298-1.378-0.621-2.864-0.967-4.457
			c-0.68-3.174-1.39-6.719-2.643-10.514c-0.573-1.897-1.164-3.878-1.778-5.931c-0.811-1.975-1.653-4.022-2.512-6.122
			c-1.504-4.284-4.165-8.318-6.235-12.769c-2.703-4.123-5.197-8.562-8.473-12.554c-2.948-4.248-6.677-7.948-10.185-11.826
			c-3.884-3.503-7.584-7.244-11.826-10.185c-3.998-3.276-8.431-5.776-12.554-8.473c-4.451-2.071-8.491-4.72-12.775-6.229
			c-2.1-0.865-4.147-1.701-6.122-2.512c-2.047-0.615-4.028-1.205-5.925-1.778c-3.789-1.253-7.363-1.963-10.543-2.643
			c-1.593-0.346-3.085-0.668-4.463-0.973c-1.402-0.161-2.685-0.31-3.849-0.442c-4.678-0.609-7.351-0.949-7.351-0.949
			s2.703-0.078,7.423-0.209c1.187-0.012,2.506-0.024,3.938-0.036c1.426,0.125,2.966,0.263,4.612,0.412
			c3.306,0.269,7.071,0.531,11.039,1.587c2.005,0.442,4.093,0.895,6.259,1.372c2.106,0.68,4.29,1.384,6.528,2.112
			c4.571,1.247,8.998,3.598,13.73,5.68c4.398,2.673,9.261,5.024,13.485,8.467c4.517,3.055,8.479,6.916,12.608,10.591
			c3.664,4.135,7.536,8.091,10.585,12.608c3.437,4.231,5.788,9.082,8.461,13.491c2.094,4.726,4.427,9.153,5.68,13.73
			c0.728,2.238,1.432,4.421,2.112,6.528c0.477,2.16,0.931,4.248,1.372,6.259c1.05,3.956,1.319,7.751,1.587,11.069
			c0.149,1.653,0.292,3.192,0.412,4.624C209.61,135.931,209.592,137.238,209.58,138.419z M233.394,180.927
			c-2.041,3.258-5.328,4.881-7.333,3.622c-2.005-1.259-1.975-4.917,0.072-8.181c2.041-3.252,5.322-4.875,7.327-3.616
			C235.465,174.012,235.441,177.664,233.394,180.927z"/>
	</g>
</g>
<g>
</g>
<g>
</g>
<g>
</g>
<g>
</g>
<g>
</g>
<g>
</g>
<g>
</g>
<g>
</g>
<g>
</g>
<g>
</g>
<g>
</g>
<g>
</g>
<g>
</g>
<g>
</g>
<g>
</g>
</svg>
