<?xml version="1.0" encoding="iso-8859-1"?>
<!-- Generator: Adobe Illustrator 19.0.0, SVG Export Plug-In . SVG Version: 6.00 Build 0)  -->
<svg version="1.1" id="Capa_1" xmlns="http://www.w3.org/2000/svg" xmlns:xlink="http://www.w3.org/1999/xlink" x="0px" y="0px"
	 viewBox="0 0 537.695 537.695" style="enable-background:new 0 0 537.695 537.695;" xml:space="preserve">
<g>
	<g>
		<path style="fill:#5B97AF" d="M403.924,537.695H133.727c-6.208,0-11.231-5.023-11.231-11.231V235.177c-44.89-5.363-78.615-42.609-78.615-89.177
			c0-49.54,40.328-89.846,89.89-89.846c10.562,0,21.047,1.875,30.874,5.484C181.414,26.717,225.383,0,269.144,0
			c43.486,0,87.203,26.706,103.939,61.616c9.827-3.63,20.18-5.462,30.928-5.462c49.508,0,89.802,40.306,89.802,89.846
			c0,46.579-33.736,83.814-78.659,89.177v291.287C415.155,532.672,410.131,537.695,403.924,537.695z M144.958,515.233h247.735
			v-67.385H144.958V515.233z M347.529,425.387h45.164V224.615c0-6.208,5.023-11.231,11.231-11.231
			c37.816,0,67.428-29.601,67.428-67.385c0-37.158-30.205-67.385-67.341-67.385c-11.297,0-22.001,2.687-31.806,7.995
			c-3.005,1.634-6.624,1.777-9.717,0.461c-3.159-1.327-5.528-4.014-6.449-7.293c-8.752-31.071-48.564-57.316-86.896-57.316
			c-38.639,0-78.681,26.245-87.466,57.316c-0.921,3.29-3.29,5.966-6.427,7.293c-3.137,1.316-6.734,1.152-9.717-0.461
			c-9.662-5.232-20.641-7.995-31.762-7.995c-37.18,0-67.428,30.227-67.428,67.385c0,37.783,29.601,67.385,67.385,67.385
			c6.208,0,11.231,5.023,11.231,11.231v200.772h45.142v-78.615c0-6.208,5.023-11.231,11.231-11.231
			c6.208,0,11.231,5.023,11.231,11.231v78.615h44.704V324.31c0-6.208,5.023-11.231,11.231-11.231
			c6.208,0,11.231,5.023,11.231,11.231v101.077h45.34v-78.615c0-6.208,5.023-11.231,11.231-11.231
			c6.208,0,11.231,5.023,11.231,11.231V425.387z"/>
	</g>
</g>
<g>
</g>
<g>
</g>
<g>
</g>
<g>
</g>
<g>
</g>
<g>
</g>
<g>
</g>
<g>
</g>
<g>
</g>
<g>
</g>
<g>
</g>
<g>
</g>
<g>
</g>
<g>
</g>
<g>
</g>
</svg>
