<?xml version="1.0" encoding="utf-8"?>
<!-- Generator: Adobe Illustrator 22.1.0, SVG Export Plug-In . SVG Version: 6.00 Build 0)  -->
<svg version="1.1" id="Layer_1" xmlns="http://www.w3.org/2000/svg" xmlns:xlink="http://www.w3.org/1999/xlink" x="0px" y="0px"
	 viewBox="0 0 90 76" style="enable-background:new 0 0 90 76;" xml:space="preserve">
<style type="text/css">
	.st0{fill:#FFFFFF;}
</style>
<path class="st0" d="M90,10.4C90,4.6,85.4,0,79.6,0c-3.2,0-6.1,1.5-8.1,3.8l0,0l-37.4,46L18,32.4l0,0c-1.9-2.1-4.6-3.3-7.6-3.3
	C4.6,29,0,33.7,0,39.4c0,2.7,1.1,5.2,2.8,7l0,0L27,72.7l0,0c1.9,2.1,4.6,3.3,7.6,3.3c3.3,0,6.1-1.5,8.1-3.8l0,0l45-55.3l0,0
	C89.1,15.1,90,12.9,90,10.4z"/>
</svg>
