<?xml version="1.0" encoding="utf-8"?>
<!-- Generator: Adobe Illustrator 22.1.0, SVG Export Plug-In . SVG Version: 6.00 Build 0)  -->
<svg version="1.1" id="Layer_1" xmlns="http://www.w3.org/2000/svg" xmlns:xlink="http://www.w3.org/1999/xlink" x="0px" y="0px"
	 viewBox="0 0 91.2 82.8" style="enable-background:new 0 0 91.2 82.8;" xml:space="preserve">
<style type="text/css">
	.st0{fill:#FFFFFF;}
</style>
<path class="st0" d="M13.7,82.8h63.8c10.5,0,17.1-11.5,11.9-20.5l-32-55.4c-5.2-9.2-18.4-9.2-23.6,0l-32,55.4
	C-3.3,71.4,3.2,82.8,13.7,82.8z M45.7,70.5c-2.8,0-5.1-2.3-5.1-5.1s2.3-5.1,5.1-5.1s5.1,2.3,5,5.2C50.8,68.2,48.4,70.5,45.7,70.5z
	 M44.4,24.5c2.4-0.6,4.9,0.6,5.9,2.9c0.3,0.8,0.5,1.6,0.5,2.5c-0.1,2.5-0.3,5.1-0.5,7.6c-0.2,3.9-0.5,7.9-0.7,11.8
	c-0.1,1.3-0.1,2.4-0.1,3.7c-0.1,2.1-1.7,3.7-3.8,3.7s-3.7-1.5-3.8-3.6c-0.3-6.1-0.7-12.2-1-18.3c-0.1-1.6-0.2-3.2-0.3-4.9
	C40.5,27.4,42,25.2,44.4,24.5z"/>
</svg>
